<mxfile host="app.diagrams.net" modified="2022-10-12T18:06:27.988Z" agent="5.0 (Macintosh; Intel Mac OS X 10_15_7) AppleWebKit/605.1.15 (KHTML, like Gecko) Version/15.5 Safari/605.1.15" etag="qPfoFy9LelRvt1nW_vur" version="20.4.0" type="github">
  <diagram id="vv3MheI4nflTlW9d9Kxx" name="第 1 页">
    <mxGraphModel dx="2066" dy="1185" grid="1" gridSize="10" guides="1" tooltips="1" connect="1" arrows="1" fold="1" page="1" pageScale="1" pageWidth="827" pageHeight="1169" math="0" shadow="0">
      <root>
        <mxCell id="0" />
        <mxCell id="1" parent="0" />
        <mxCell id="IsSZBrrW5yVkn5puTIVh-1" value="" style="rounded=0;whiteSpace=wrap;html=1;fillColor=#d5e8d4;strokeColor=#82b366;" vertex="1" parent="1">
          <mxGeometry x="30" y="360" width="570" height="490" as="geometry" />
        </mxCell>
        <mxCell id="IsSZBrrW5yVkn5puTIVh-2" value="&lt;font style=&quot;font-size: 36px;&quot;&gt;front &amp;nbsp;end&lt;/font&gt;" style="text;html=1;strokeColor=none;fillColor=none;align=center;verticalAlign=middle;whiteSpace=wrap;rounded=0;" vertex="1" parent="1">
          <mxGeometry x="140" y="360" width="310" height="30" as="geometry" />
        </mxCell>
        <mxCell id="IsSZBrrW5yVkn5puTIVh-13" value="" style="shape=table;startSize=0;container=1;collapsible=0;childLayout=tableLayout;fontSize=24;" vertex="1" parent="1">
          <mxGeometry x="90" y="420" width="450" height="375" as="geometry" />
        </mxCell>
        <mxCell id="IsSZBrrW5yVkn5puTIVh-14" value="" style="shape=tableRow;horizontal=0;startSize=0;swimlaneHead=0;swimlaneBody=0;top=0;left=0;bottom=0;right=0;collapsible=0;dropTarget=0;fillColor=none;points=[[0,0.5],[1,0.5]];portConstraint=eastwest;fontSize=24;" vertex="1" parent="IsSZBrrW5yVkn5puTIVh-13">
          <mxGeometry width="450" height="75" as="geometry" />
        </mxCell>
        <mxCell id="IsSZBrrW5yVkn5puTIVh-15" value="basic" style="shape=partialRectangle;html=1;whiteSpace=wrap;connectable=0;overflow=hidden;fillColor=none;top=0;left=0;bottom=0;right=0;pointerEvents=1;fontSize=24;" vertex="1" parent="IsSZBrrW5yVkn5puTIVh-14">
          <mxGeometry width="136" height="75" as="geometry">
            <mxRectangle width="136" height="75" as="alternateBounds" />
          </mxGeometry>
        </mxCell>
        <mxCell id="IsSZBrrW5yVkn5puTIVh-16" value="html, css,js" style="shape=partialRectangle;html=1;whiteSpace=wrap;connectable=0;overflow=hidden;fillColor=none;top=0;left=0;bottom=0;right=0;pointerEvents=1;fontSize=24;" vertex="1" parent="IsSZBrrW5yVkn5puTIVh-14">
          <mxGeometry x="136" width="314" height="75" as="geometry">
            <mxRectangle width="314" height="75" as="alternateBounds" />
          </mxGeometry>
        </mxCell>
        <mxCell id="IsSZBrrW5yVkn5puTIVh-17" value="" style="shape=tableRow;horizontal=0;startSize=0;swimlaneHead=0;swimlaneBody=0;top=0;left=0;bottom=0;right=0;collapsible=0;dropTarget=0;fillColor=none;points=[[0,0.5],[1,0.5]];portConstraint=eastwest;fontSize=24;" vertex="1" parent="IsSZBrrW5yVkn5puTIVh-13">
          <mxGeometry y="75" width="450" height="75" as="geometry" />
        </mxCell>
        <mxCell id="IsSZBrrW5yVkn5puTIVh-18" value="chart" style="shape=partialRectangle;html=1;whiteSpace=wrap;connectable=0;overflow=hidden;fillColor=none;top=0;left=0;bottom=0;right=0;pointerEvents=1;fontSize=24;" vertex="1" parent="IsSZBrrW5yVkn5puTIVh-17">
          <mxGeometry width="136" height="75" as="geometry">
            <mxRectangle width="136" height="75" as="alternateBounds" />
          </mxGeometry>
        </mxCell>
        <mxCell id="IsSZBrrW5yVkn5puTIVh-19" value="chart.js, apex chart" style="shape=partialRectangle;html=1;whiteSpace=wrap;connectable=0;overflow=hidden;fillColor=none;top=0;left=0;bottom=0;right=0;pointerEvents=1;fontSize=24;" vertex="1" parent="IsSZBrrW5yVkn5puTIVh-17">
          <mxGeometry x="136" width="314" height="75" as="geometry">
            <mxRectangle width="314" height="75" as="alternateBounds" />
          </mxGeometry>
        </mxCell>
        <mxCell id="IsSZBrrW5yVkn5puTIVh-20" value="" style="shape=tableRow;horizontal=0;startSize=0;swimlaneHead=0;swimlaneBody=0;top=0;left=0;bottom=0;right=0;collapsible=0;dropTarget=0;fillColor=none;points=[[0,0.5],[1,0.5]];portConstraint=eastwest;fontSize=24;" vertex="1" parent="IsSZBrrW5yVkn5puTIVh-13">
          <mxGeometry y="150" width="450" height="75" as="geometry" />
        </mxCell>
        <mxCell id="IsSZBrrW5yVkn5puTIVh-21" value="map&amp;nbsp;" style="shape=partialRectangle;html=1;whiteSpace=wrap;connectable=0;overflow=hidden;fillColor=none;top=0;left=0;bottom=0;right=0;pointerEvents=1;fontSize=24;" vertex="1" parent="IsSZBrrW5yVkn5puTIVh-20">
          <mxGeometry width="136" height="75" as="geometry">
            <mxRectangle width="136" height="75" as="alternateBounds" />
          </mxGeometry>
        </mxCell>
        <mxCell id="IsSZBrrW5yVkn5puTIVh-22" value="leaflet, windy, open map tile" style="shape=partialRectangle;html=1;whiteSpace=wrap;connectable=0;overflow=hidden;fillColor=none;top=0;left=0;bottom=0;right=0;pointerEvents=1;fontSize=24;" vertex="1" parent="IsSZBrrW5yVkn5puTIVh-20">
          <mxGeometry x="136" width="314" height="75" as="geometry">
            <mxRectangle width="314" height="75" as="alternateBounds" />
          </mxGeometry>
        </mxCell>
        <mxCell id="IsSZBrrW5yVkn5puTIVh-23" value="" style="shape=tableRow;horizontal=0;startSize=0;swimlaneHead=0;swimlaneBody=0;top=0;left=0;bottom=0;right=0;collapsible=0;dropTarget=0;fillColor=none;points=[[0,0.5],[1,0.5]];portConstraint=eastwest;fontSize=24;" vertex="1" parent="IsSZBrrW5yVkn5puTIVh-13">
          <mxGeometry y="225" width="450" height="75" as="geometry" />
        </mxCell>
        <mxCell id="IsSZBrrW5yVkn5puTIVh-24" value="3d" style="shape=partialRectangle;html=1;whiteSpace=wrap;connectable=0;overflow=hidden;fillColor=none;top=0;left=0;bottom=0;right=0;pointerEvents=1;fontSize=24;" vertex="1" parent="IsSZBrrW5yVkn5puTIVh-23">
          <mxGeometry width="136" height="75" as="geometry">
            <mxRectangle width="136" height="75" as="alternateBounds" />
          </mxGeometry>
        </mxCell>
        <mxCell id="IsSZBrrW5yVkn5puTIVh-25" value="cesium" style="shape=partialRectangle;html=1;whiteSpace=wrap;connectable=0;overflow=hidden;fillColor=none;top=0;left=0;bottom=0;right=0;pointerEvents=1;fontSize=24;" vertex="1" parent="IsSZBrrW5yVkn5puTIVh-23">
          <mxGeometry x="136" width="314" height="75" as="geometry">
            <mxRectangle width="314" height="75" as="alternateBounds" />
          </mxGeometry>
        </mxCell>
        <mxCell id="IsSZBrrW5yVkn5puTIVh-26" style="shape=tableRow;horizontal=0;startSize=0;swimlaneHead=0;swimlaneBody=0;top=0;left=0;bottom=0;right=0;collapsible=0;dropTarget=0;fillColor=none;points=[[0,0.5],[1,0.5]];portConstraint=eastwest;fontSize=24;" vertex="1" parent="IsSZBrrW5yVkn5puTIVh-13">
          <mxGeometry y="300" width="450" height="75" as="geometry" />
        </mxCell>
        <mxCell id="IsSZBrrW5yVkn5puTIVh-27" value="optimize&amp;nbsp;" style="shape=partialRectangle;html=1;whiteSpace=wrap;connectable=0;overflow=hidden;fillColor=none;top=0;left=0;bottom=0;right=0;pointerEvents=1;fontSize=24;" vertex="1" parent="IsSZBrrW5yVkn5puTIVh-26">
          <mxGeometry width="136" height="75" as="geometry">
            <mxRectangle width="136" height="75" as="alternateBounds" />
          </mxGeometry>
        </mxCell>
        <mxCell id="IsSZBrrW5yVkn5puTIVh-28" value="performance&amp;nbsp;" style="shape=partialRectangle;html=1;whiteSpace=wrap;connectable=0;overflow=hidden;fillColor=none;top=0;left=0;bottom=0;right=0;pointerEvents=1;fontSize=24;" vertex="1" parent="IsSZBrrW5yVkn5puTIVh-26">
          <mxGeometry x="136" width="314" height="75" as="geometry">
            <mxRectangle width="314" height="75" as="alternateBounds" />
          </mxGeometry>
        </mxCell>
        <mxCell id="IsSZBrrW5yVkn5puTIVh-29" value="" style="rounded=0;whiteSpace=wrap;html=1;fontFamily=Helvetica;fontSize=24;fillColor=#f5f5f5;strokeColor=#666666;fontColor=#333333;" vertex="1" parent="1">
          <mxGeometry x="600" y="360" width="620" height="490" as="geometry" />
        </mxCell>
        <mxCell id="IsSZBrrW5yVkn5puTIVh-30" value="&lt;font style=&quot;font-size: 36px;&quot;&gt;back end&lt;/font&gt;" style="text;html=1;strokeColor=none;fillColor=none;align=center;verticalAlign=middle;whiteSpace=wrap;rounded=0;fontFamily=Helvetica;fontSize=24;" vertex="1" parent="1">
          <mxGeometry x="790" y="360" width="230" height="40" as="geometry" />
        </mxCell>
        <mxCell id="IsSZBrrW5yVkn5puTIVh-31" value="" style="shape=table;startSize=0;container=1;collapsible=0;childLayout=tableLayout;fontFamily=Helvetica;fontSize=24;" vertex="1" parent="1">
          <mxGeometry x="680" y="420" width="500" height="370" as="geometry" />
        </mxCell>
        <mxCell id="IsSZBrrW5yVkn5puTIVh-32" value="" style="shape=tableRow;horizontal=0;startSize=0;swimlaneHead=0;swimlaneBody=0;top=0;left=0;bottom=0;right=0;collapsible=0;dropTarget=0;fillColor=none;points=[[0,0.5],[1,0.5]];portConstraint=eastwest;fontFamily=Helvetica;fontSize=24;" vertex="1" parent="IsSZBrrW5yVkn5puTIVh-31">
          <mxGeometry width="500" height="123" as="geometry" />
        </mxCell>
        <mxCell id="IsSZBrrW5yVkn5puTIVh-33" value="frame" style="shape=partialRectangle;html=1;whiteSpace=wrap;connectable=0;overflow=hidden;fillColor=none;top=0;left=0;bottom=0;right=0;pointerEvents=1;fontFamily=Helvetica;fontSize=24;" vertex="1" parent="IsSZBrrW5yVkn5puTIVh-32">
          <mxGeometry width="126" height="123" as="geometry">
            <mxRectangle width="126" height="123" as="alternateBounds" />
          </mxGeometry>
        </mxCell>
        <mxCell id="IsSZBrrW5yVkn5puTIVh-34" value="Django" style="shape=partialRectangle;html=1;whiteSpace=wrap;connectable=0;overflow=hidden;fillColor=none;top=0;left=0;bottom=0;right=0;pointerEvents=1;fontFamily=Helvetica;fontSize=24;" vertex="1" parent="IsSZBrrW5yVkn5puTIVh-32">
          <mxGeometry x="126" width="374" height="123" as="geometry">
            <mxRectangle width="374" height="123" as="alternateBounds" />
          </mxGeometry>
        </mxCell>
        <mxCell id="IsSZBrrW5yVkn5puTIVh-35" value="" style="shape=tableRow;horizontal=0;startSize=0;swimlaneHead=0;swimlaneBody=0;top=0;left=0;bottom=0;right=0;collapsible=0;dropTarget=0;fillColor=none;points=[[0,0.5],[1,0.5]];portConstraint=eastwest;fontFamily=Helvetica;fontSize=24;" vertex="1" parent="IsSZBrrW5yVkn5puTIVh-31">
          <mxGeometry y="123" width="500" height="124" as="geometry" />
        </mxCell>
        <mxCell id="IsSZBrrW5yVkn5puTIVh-36" value="python" style="shape=partialRectangle;html=1;whiteSpace=wrap;connectable=0;overflow=hidden;fillColor=none;top=0;left=0;bottom=0;right=0;pointerEvents=1;fontFamily=Helvetica;fontSize=24;" vertex="1" parent="IsSZBrrW5yVkn5puTIVh-35">
          <mxGeometry width="126" height="124" as="geometry">
            <mxRectangle width="126" height="124" as="alternateBounds" />
          </mxGeometry>
        </mxCell>
        <mxCell id="IsSZBrrW5yVkn5puTIVh-37" value="geopy,geographiclib,math,statistics&lt;br&gt;xml,matplotlib,numpy,tkinter" style="shape=partialRectangle;html=1;whiteSpace=wrap;connectable=0;overflow=hidden;fillColor=none;top=0;left=0;bottom=0;right=0;pointerEvents=1;fontFamily=Helvetica;fontSize=24;" vertex="1" parent="IsSZBrrW5yVkn5puTIVh-35">
          <mxGeometry x="126" width="374" height="124" as="geometry">
            <mxRectangle width="374" height="124" as="alternateBounds" />
          </mxGeometry>
        </mxCell>
        <mxCell id="IsSZBrrW5yVkn5puTIVh-38" value="" style="shape=tableRow;horizontal=0;startSize=0;swimlaneHead=0;swimlaneBody=0;top=0;left=0;bottom=0;right=0;collapsible=0;dropTarget=0;fillColor=none;points=[[0,0.5],[1,0.5]];portConstraint=eastwest;fontFamily=Helvetica;fontSize=24;" vertex="1" parent="IsSZBrrW5yVkn5puTIVh-31">
          <mxGeometry y="247" width="500" height="123" as="geometry" />
        </mxCell>
        <mxCell id="IsSZBrrW5yVkn5puTIVh-39" value="db" style="shape=partialRectangle;html=1;whiteSpace=wrap;connectable=0;overflow=hidden;fillColor=none;top=0;left=0;bottom=0;right=0;pointerEvents=1;fontFamily=Helvetica;fontSize=24;" vertex="1" parent="IsSZBrrW5yVkn5puTIVh-38">
          <mxGeometry width="126" height="123" as="geometry">
            <mxRectangle width="126" height="123" as="alternateBounds" />
          </mxGeometry>
        </mxCell>
        <mxCell id="IsSZBrrW5yVkn5puTIVh-40" value="mysql,splite" style="shape=partialRectangle;html=1;whiteSpace=wrap;connectable=0;overflow=hidden;fillColor=none;top=0;left=0;bottom=0;right=0;pointerEvents=1;fontFamily=Helvetica;fontSize=24;" vertex="1" parent="IsSZBrrW5yVkn5puTIVh-38">
          <mxGeometry x="126" width="374" height="123" as="geometry">
            <mxRectangle width="374" height="123" as="alternateBounds" />
          </mxGeometry>
        </mxCell>
        <mxCell id="IsSZBrrW5yVkn5puTIVh-41" value="" style="rounded=0;whiteSpace=wrap;html=1;fontFamily=Helvetica;fontSize=36;fillColor=#ffe6cc;strokeColor=#d79b00;" vertex="1" parent="1">
          <mxGeometry x="600" y="850" width="620" height="420" as="geometry" />
        </mxCell>
        <mxCell id="IsSZBrrW5yVkn5puTIVh-42" value="digitizing" style="text;html=1;strokeColor=none;fillColor=none;align=center;verticalAlign=middle;whiteSpace=wrap;rounded=0;fontFamily=Helvetica;fontSize=36;" vertex="1" parent="1">
          <mxGeometry x="762.5" y="860" width="295" height="30" as="geometry" />
        </mxCell>
        <mxCell id="IsSZBrrW5yVkn5puTIVh-43" value="" style="shape=table;startSize=0;container=1;collapsible=0;childLayout=tableLayout;fontFamily=Helvetica;fontSize=36;" vertex="1" parent="1">
          <mxGeometry x="670" y="920" width="510" height="334" as="geometry" />
        </mxCell>
        <mxCell id="IsSZBrrW5yVkn5puTIVh-44" value="" style="shape=tableRow;horizontal=0;startSize=0;swimlaneHead=0;swimlaneBody=0;top=0;left=0;bottom=0;right=0;collapsible=0;dropTarget=0;fillColor=none;points=[[0,0.5],[1,0.5]];portConstraint=eastwest;fontFamily=Helvetica;fontSize=36;" vertex="1" parent="IsSZBrrW5yVkn5puTIVh-43">
          <mxGeometry width="510" height="86" as="geometry" />
        </mxCell>
        <mxCell id="IsSZBrrW5yVkn5puTIVh-45" value="&lt;font style=&quot;font-size: 24px;&quot;&gt;raw data&lt;/font&gt;" style="shape=partialRectangle;html=1;whiteSpace=wrap;connectable=0;overflow=hidden;fillColor=none;top=0;left=0;bottom=0;right=0;pointerEvents=1;fontFamily=Helvetica;fontSize=36;" vertex="1" parent="IsSZBrrW5yVkn5puTIVh-44">
          <mxGeometry width="190" height="86" as="geometry">
            <mxRectangle width="190" height="86" as="alternateBounds" />
          </mxGeometry>
        </mxCell>
        <mxCell id="IsSZBrrW5yVkn5puTIVh-46" value="&lt;font style=&quot;font-size: 24px;&quot;&gt;filter&lt;/font&gt;" style="shape=partialRectangle;html=1;whiteSpace=wrap;connectable=0;overflow=hidden;fillColor=none;top=0;left=0;bottom=0;right=0;pointerEvents=1;fontFamily=Helvetica;fontSize=36;" vertex="1" parent="IsSZBrrW5yVkn5puTIVh-44">
          <mxGeometry x="190" width="320" height="86" as="geometry">
            <mxRectangle width="320" height="86" as="alternateBounds" />
          </mxGeometry>
        </mxCell>
        <mxCell id="IsSZBrrW5yVkn5puTIVh-47" value="" style="shape=tableRow;horizontal=0;startSize=0;swimlaneHead=0;swimlaneBody=0;top=0;left=0;bottom=0;right=0;collapsible=0;dropTarget=0;fillColor=none;points=[[0,0.5],[1,0.5]];portConstraint=eastwest;fontFamily=Helvetica;fontSize=36;" vertex="1" parent="IsSZBrrW5yVkn5puTIVh-43">
          <mxGeometry y="86" width="510" height="84" as="geometry" />
        </mxCell>
        <mxCell id="IsSZBrrW5yVkn5puTIVh-48" value="&lt;font style=&quot;font-size: 24px;&quot;&gt;method&lt;/font&gt;" style="shape=partialRectangle;html=1;whiteSpace=wrap;connectable=0;overflow=hidden;fillColor=none;top=0;left=0;bottom=0;right=0;pointerEvents=1;fontFamily=Helvetica;fontSize=36;" vertex="1" parent="IsSZBrrW5yVkn5puTIVh-47">
          <mxGeometry width="190" height="84" as="geometry">
            <mxRectangle width="190" height="84" as="alternateBounds" />
          </mxGeometry>
        </mxCell>
        <mxCell id="IsSZBrrW5yVkn5puTIVh-49" value="&lt;font style=&quot;font-size: 24px;&quot;&gt;find in papers&lt;/font&gt;" style="shape=partialRectangle;html=1;whiteSpace=wrap;connectable=0;overflow=hidden;fillColor=none;top=0;left=0;bottom=0;right=0;pointerEvents=1;fontFamily=Helvetica;fontSize=36;" vertex="1" parent="IsSZBrrW5yVkn5puTIVh-47">
          <mxGeometry x="190" width="320" height="84" as="geometry">
            <mxRectangle width="320" height="84" as="alternateBounds" />
          </mxGeometry>
        </mxCell>
        <mxCell id="IsSZBrrW5yVkn5puTIVh-50" value="" style="shape=tableRow;horizontal=0;startSize=0;swimlaneHead=0;swimlaneBody=0;top=0;left=0;bottom=0;right=0;collapsible=0;dropTarget=0;fillColor=none;points=[[0,0.5],[1,0.5]];portConstraint=eastwest;fontFamily=Helvetica;fontSize=36;" vertex="1" parent="IsSZBrrW5yVkn5puTIVh-43">
          <mxGeometry y="170" width="510" height="80" as="geometry" />
        </mxCell>
        <mxCell id="IsSZBrrW5yVkn5puTIVh-51" value="&lt;font style=&quot;font-size: 24px;&quot;&gt;knowledge&lt;/font&gt;" style="shape=partialRectangle;html=1;whiteSpace=wrap;connectable=0;overflow=hidden;fillColor=none;top=0;left=0;bottom=0;right=0;pointerEvents=1;fontFamily=Helvetica;fontSize=36;" vertex="1" parent="IsSZBrrW5yVkn5puTIVh-50">
          <mxGeometry width="190" height="80" as="geometry">
            <mxRectangle width="190" height="80" as="alternateBounds" />
          </mxGeometry>
        </mxCell>
        <mxCell id="IsSZBrrW5yVkn5puTIVh-52" value="&lt;font style=&quot;font-size: 24px;&quot;&gt;models consist of methods&lt;/font&gt;" style="shape=partialRectangle;html=1;whiteSpace=wrap;connectable=0;overflow=hidden;fillColor=none;top=0;left=0;bottom=0;right=0;pointerEvents=1;fontFamily=Helvetica;fontSize=36;" vertex="1" parent="IsSZBrrW5yVkn5puTIVh-50">
          <mxGeometry x="190" width="320" height="80" as="geometry">
            <mxRectangle width="320" height="80" as="alternateBounds" />
          </mxGeometry>
        </mxCell>
        <mxCell id="IsSZBrrW5yVkn5puTIVh-53" value="" style="shape=tableRow;horizontal=0;startSize=0;swimlaneHead=0;swimlaneBody=0;top=0;left=0;bottom=0;right=0;collapsible=0;dropTarget=0;fillColor=none;points=[[0,0.5],[1,0.5]];portConstraint=eastwest;fontFamily=Helvetica;fontSize=36;" vertex="1" parent="IsSZBrrW5yVkn5puTIVh-43">
          <mxGeometry y="250" width="510" height="84" as="geometry" />
        </mxCell>
        <mxCell id="IsSZBrrW5yVkn5puTIVh-54" value="&lt;font style=&quot;font-size: 24px;&quot;&gt;app&lt;/font&gt;" style="shape=partialRectangle;html=1;whiteSpace=wrap;connectable=0;overflow=hidden;fillColor=none;top=0;left=0;bottom=0;right=0;pointerEvents=1;fontFamily=Helvetica;fontSize=36;" vertex="1" parent="IsSZBrrW5yVkn5puTIVh-53">
          <mxGeometry width="190" height="84" as="geometry">
            <mxRectangle width="190" height="84" as="alternateBounds" />
          </mxGeometry>
        </mxCell>
        <mxCell id="IsSZBrrW5yVkn5puTIVh-55" value="&lt;font style=&quot;font-size: 24px;&quot;&gt;show results to users and serve them with models&lt;/font&gt;" style="shape=partialRectangle;html=1;whiteSpace=wrap;connectable=0;overflow=hidden;fillColor=none;top=0;left=0;bottom=0;right=0;pointerEvents=1;fontFamily=Helvetica;fontSize=36;" vertex="1" parent="IsSZBrrW5yVkn5puTIVh-53">
          <mxGeometry x="190" width="320" height="84" as="geometry">
            <mxRectangle width="320" height="84" as="alternateBounds" />
          </mxGeometry>
        </mxCell>
        <mxCell id="IsSZBrrW5yVkn5puTIVh-56" value="" style="rounded=0;whiteSpace=wrap;html=1;fontFamily=Helvetica;fontSize=24;fillColor=#fff2cc;strokeColor=#d6b656;" vertex="1" parent="1">
          <mxGeometry x="30" y="850" width="570" height="420" as="geometry" />
        </mxCell>
        <mxCell id="IsSZBrrW5yVkn5puTIVh-57" value="agv schedule system" style="text;html=1;strokeColor=none;fillColor=none;align=center;verticalAlign=middle;whiteSpace=wrap;rounded=0;fontFamily=Helvetica;fontSize=24;" vertex="1" parent="1">
          <mxGeometry x="200" y="850" width="250" height="30" as="geometry" />
        </mxCell>
        <mxCell id="IsSZBrrW5yVkn5puTIVh-58" value="" style="shape=table;startSize=0;container=1;collapsible=0;childLayout=tableLayout;fontFamily=Helvetica;fontSize=24;" vertex="1" parent="1">
          <mxGeometry x="60" y="920" width="465" height="300" as="geometry" />
        </mxCell>
        <mxCell id="IsSZBrrW5yVkn5puTIVh-59" value="" style="shape=tableRow;horizontal=0;startSize=0;swimlaneHead=0;swimlaneBody=0;top=0;left=0;bottom=0;right=0;collapsible=0;dropTarget=0;fillColor=none;points=[[0,0.5],[1,0.5]];portConstraint=eastwest;fontFamily=Helvetica;fontSize=24;" vertex="1" parent="IsSZBrrW5yVkn5puTIVh-58">
          <mxGeometry width="465" height="60" as="geometry" />
        </mxCell>
        <mxCell id="IsSZBrrW5yVkn5puTIVh-60" value="path algorithm" style="shape=partialRectangle;html=1;whiteSpace=wrap;connectable=0;overflow=hidden;fillColor=none;top=0;left=0;bottom=0;right=0;pointerEvents=1;fontFamily=Helvetica;fontSize=24;" vertex="1" parent="IsSZBrrW5yVkn5puTIVh-59">
          <mxGeometry width="150" height="60" as="geometry">
            <mxRectangle width="150" height="60" as="alternateBounds" />
          </mxGeometry>
        </mxCell>
        <mxCell id="IsSZBrrW5yVkn5puTIVh-61" value="astar, cooperative-astar" style="shape=partialRectangle;html=1;whiteSpace=wrap;connectable=0;overflow=hidden;fillColor=none;top=0;left=0;bottom=0;right=0;pointerEvents=1;fontFamily=Helvetica;fontSize=24;" vertex="1" parent="IsSZBrrW5yVkn5puTIVh-59">
          <mxGeometry x="150" width="315" height="60" as="geometry">
            <mxRectangle width="315" height="60" as="alternateBounds" />
          </mxGeometry>
        </mxCell>
        <mxCell id="IsSZBrrW5yVkn5puTIVh-62" value="" style="shape=tableRow;horizontal=0;startSize=0;swimlaneHead=0;swimlaneBody=0;top=0;left=0;bottom=0;right=0;collapsible=0;dropTarget=0;fillColor=none;points=[[0,0.5],[1,0.5]];portConstraint=eastwest;fontFamily=Helvetica;fontSize=24;" vertex="1" parent="IsSZBrrW5yVkn5puTIVh-58">
          <mxGeometry y="60" width="465" height="60" as="geometry" />
        </mxCell>
        <mxCell id="IsSZBrrW5yVkn5puTIVh-63" value="trafic management" style="shape=partialRectangle;html=1;whiteSpace=wrap;connectable=0;overflow=hidden;fillColor=none;top=0;left=0;bottom=0;right=0;pointerEvents=1;fontFamily=Helvetica;fontSize=24;" vertex="1" parent="IsSZBrrW5yVkn5puTIVh-62">
          <mxGeometry width="150" height="60" as="geometry">
            <mxRectangle width="150" height="60" as="alternateBounds" />
          </mxGeometry>
        </mxCell>
        <mxCell id="IsSZBrrW5yVkn5puTIVh-64" value="filter and smoother" style="shape=partialRectangle;html=1;whiteSpace=wrap;connectable=0;overflow=hidden;fillColor=none;top=0;left=0;bottom=0;right=0;pointerEvents=1;fontFamily=Helvetica;fontSize=24;" vertex="1" parent="IsSZBrrW5yVkn5puTIVh-62">
          <mxGeometry x="150" width="315" height="60" as="geometry">
            <mxRectangle width="315" height="60" as="alternateBounds" />
          </mxGeometry>
        </mxCell>
        <mxCell id="IsSZBrrW5yVkn5puTIVh-65" value="" style="shape=tableRow;horizontal=0;startSize=0;swimlaneHead=0;swimlaneBody=0;top=0;left=0;bottom=0;right=0;collapsible=0;dropTarget=0;fillColor=none;points=[[0,0.5],[1,0.5]];portConstraint=eastwest;fontFamily=Helvetica;fontSize=24;" vertex="1" parent="IsSZBrrW5yVkn5puTIVh-58">
          <mxGeometry y="120" width="465" height="60" as="geometry" />
        </mxCell>
        <mxCell id="IsSZBrrW5yVkn5puTIVh-66" value="map&amp;nbsp;" style="shape=partialRectangle;html=1;whiteSpace=wrap;connectable=0;overflow=hidden;fillColor=none;top=0;left=0;bottom=0;right=0;pointerEvents=1;fontFamily=Helvetica;fontSize=24;" vertex="1" parent="IsSZBrrW5yVkn5puTIVh-65">
          <mxGeometry width="150" height="60" as="geometry">
            <mxRectangle width="150" height="60" as="alternateBounds" />
          </mxGeometry>
        </mxCell>
        <mxCell id="IsSZBrrW5yVkn5puTIVh-67" value="points{position,neighbors}" style="shape=partialRectangle;html=1;whiteSpace=wrap;connectable=0;overflow=hidden;fillColor=none;top=0;left=0;bottom=0;right=0;pointerEvents=1;fontFamily=Helvetica;fontSize=24;" vertex="1" parent="IsSZBrrW5yVkn5puTIVh-65">
          <mxGeometry x="150" width="315" height="60" as="geometry">
            <mxRectangle width="315" height="60" as="alternateBounds" />
          </mxGeometry>
        </mxCell>
        <mxCell id="IsSZBrrW5yVkn5puTIVh-68" value="" style="shape=tableRow;horizontal=0;startSize=0;swimlaneHead=0;swimlaneBody=0;top=0;left=0;bottom=0;right=0;collapsible=0;dropTarget=0;fillColor=none;points=[[0,0.5],[1,0.5]];portConstraint=eastwest;fontFamily=Helvetica;fontSize=24;" vertex="1" parent="IsSZBrrW5yVkn5puTIVh-58">
          <mxGeometry y="180" width="465" height="60" as="geometry" />
        </mxCell>
        <mxCell id="IsSZBrrW5yVkn5puTIVh-69" value="simulator" style="shape=partialRectangle;html=1;whiteSpace=wrap;connectable=0;overflow=hidden;fillColor=none;top=0;left=0;bottom=0;right=0;pointerEvents=1;fontFamily=Helvetica;fontSize=24;" vertex="1" parent="IsSZBrrW5yVkn5puTIVh-68">
          <mxGeometry width="150" height="60" as="geometry">
            <mxRectangle width="150" height="60" as="alternateBounds" />
          </mxGeometry>
        </mxCell>
        <mxCell id="IsSZBrrW5yVkn5puTIVh-70" value="qt" style="shape=partialRectangle;html=1;whiteSpace=wrap;connectable=0;overflow=hidden;fillColor=none;top=0;left=0;bottom=0;right=0;pointerEvents=1;fontFamily=Helvetica;fontSize=24;" vertex="1" parent="IsSZBrrW5yVkn5puTIVh-68">
          <mxGeometry x="150" width="315" height="60" as="geometry">
            <mxRectangle width="315" height="60" as="alternateBounds" />
          </mxGeometry>
        </mxCell>
        <mxCell id="IsSZBrrW5yVkn5puTIVh-71" style="shape=tableRow;horizontal=0;startSize=0;swimlaneHead=0;swimlaneBody=0;top=0;left=0;bottom=0;right=0;collapsible=0;dropTarget=0;fillColor=none;points=[[0,0.5],[1,0.5]];portConstraint=eastwest;fontFamily=Helvetica;fontSize=24;" vertex="1" parent="IsSZBrrW5yVkn5puTIVh-58">
          <mxGeometry y="240" width="465" height="60" as="geometry" />
        </mxCell>
        <mxCell id="IsSZBrrW5yVkn5puTIVh-72" value="microservice interface" style="shape=partialRectangle;html=1;whiteSpace=wrap;connectable=0;overflow=hidden;fillColor=none;top=0;left=0;bottom=0;right=0;pointerEvents=1;fontFamily=Helvetica;fontSize=24;" vertex="1" parent="IsSZBrrW5yVkn5puTIVh-71">
          <mxGeometry width="150" height="60" as="geometry">
            <mxRectangle width="150" height="60" as="alternateBounds" />
          </mxGeometry>
        </mxCell>
        <mxCell id="IsSZBrrW5yVkn5puTIVh-73" value="grace" style="shape=partialRectangle;html=1;whiteSpace=wrap;connectable=0;overflow=hidden;fillColor=none;top=0;left=0;bottom=0;right=0;pointerEvents=1;fontFamily=Helvetica;fontSize=24;" vertex="1" parent="IsSZBrrW5yVkn5puTIVh-71">
          <mxGeometry x="150" width="315" height="60" as="geometry">
            <mxRectangle width="315" height="60" as="alternateBounds" />
          </mxGeometry>
        </mxCell>
        <mxCell id="IsSZBrrW5yVkn5puTIVh-74" value="" style="rounded=0;whiteSpace=wrap;html=1;fontFamily=Helvetica;fontSize=24;fillColor=#eeeeee;strokeColor=#36393d;" vertex="1" parent="1">
          <mxGeometry x="30" y="1270" width="1190" height="540" as="geometry" />
        </mxCell>
        <mxCell id="IsSZBrrW5yVkn5puTIVh-75" value="&lt;font style=&quot;font-size: 36px;&quot;&gt;family mart micro warehouse&lt;/font&gt;" style="text;html=1;strokeColor=none;fillColor=none;align=center;verticalAlign=middle;whiteSpace=wrap;rounded=0;fontFamily=Helvetica;fontSize=24;" vertex="1" parent="1">
          <mxGeometry x="420" y="1270" width="540" height="30" as="geometry" />
        </mxCell>
        <mxCell id="IsSZBrrW5yVkn5puTIVh-76" value="elevator" style="rounded=0;whiteSpace=wrap;html=1;fontFamily=Helvetica;fontSize=24;fillColor=#b0e3e6;strokeColor=#0e8088;" vertex="1" parent="1">
          <mxGeometry x="90" y="1330" width="150" height="440" as="geometry" />
        </mxCell>
        <mxCell id="IsSZBrrW5yVkn5puTIVh-77" value="camera" style="ellipse;whiteSpace=wrap;html=1;aspect=fixed;fontFamily=Helvetica;fontSize=24;fillColor=#ffff88;strokeColor=#36393d;" vertex="1" parent="1">
          <mxGeometry x="120" y="1580" width="90" height="90" as="geometry" />
        </mxCell>
        <mxCell id="IsSZBrrW5yVkn5puTIVh-78" value="boxes" style="rounded=0;whiteSpace=wrap;html=1;fontFamily=Helvetica;fontSize=24;fillColor=#b0e3e6;strokeColor=#0e8088;" vertex="1" parent="1">
          <mxGeometry x="90" y="1700" width="150" height="70" as="geometry" />
        </mxCell>
        <mxCell id="IsSZBrrW5yVkn5puTIVh-79" value="warehouse: boxes with items" style="rounded=0;whiteSpace=wrap;html=1;fontFamily=Helvetica;fontSize=24;fillColor=#b0e3e6;strokeColor=#0e8088;" vertex="1" parent="1">
          <mxGeometry x="240" y="1330" width="600" height="60" as="geometry" />
        </mxCell>
        <mxCell id="IsSZBrrW5yVkn5puTIVh-80" value="simple arm" style="rounded=0;whiteSpace=wrap;html=1;fontFamily=Helvetica;fontSize=24;fillColor=#b0e3e6;strokeColor=#0e8088;" vertex="1" parent="1">
          <mxGeometry x="90" y="1330" width="150" height="60" as="geometry" />
        </mxCell>
        <mxCell id="IsSZBrrW5yVkn5puTIVh-81" value="PLC" style="whiteSpace=wrap;html=1;aspect=fixed;fontFamily=Helvetica;fontSize=24;fillColor=#b0e3e6;strokeColor=#0e8088;" vertex="1" parent="1">
          <mxGeometry x="240" y="1660" width="110" height="110" as="geometry" />
        </mxCell>
        <mxCell id="IsSZBrrW5yVkn5puTIVh-82" value="" style="rounded=0;whiteSpace=wrap;html=1;fontFamily=Helvetica;fontSize=24;fillColor=#ffcccc;strokeColor=#36393d;" vertex="1" parent="1">
          <mxGeometry x="380" y="1450" width="450" height="260" as="geometry" />
        </mxCell>
        <mxCell id="IsSZBrrW5yVkn5puTIVh-83" value="schedule system" style="text;html=1;strokeColor=none;fillColor=none;align=center;verticalAlign=middle;whiteSpace=wrap;rounded=0;fontFamily=Helvetica;fontSize=24;" vertex="1" parent="1">
          <mxGeometry x="490" y="1450" width="220" height="30" as="geometry" />
        </mxCell>
        <mxCell id="IsSZBrrW5yVkn5puTIVh-84" value="scaner:barcode" style="rounded=1;whiteSpace=wrap;html=1;fontFamily=Helvetica;fontSize=24;" vertex="1" parent="1">
          <mxGeometry x="590" y="1500" width="190" height="60" as="geometry" />
        </mxCell>
        <mxCell id="IsSZBrrW5yVkn5puTIVh-85" value="take box let volume" style="rounded=1;whiteSpace=wrap;html=1;fontFamily=Helvetica;fontSize=24;" vertex="1" parent="1">
          <mxGeometry x="440" y="1500" width="120" height="60" as="geometry" />
        </mxCell>
        <mxCell id="IsSZBrrW5yVkn5puTIVh-86" value="" style="endArrow=none;dashed=1;html=1;rounded=0;fontFamily=Helvetica;fontSize=24;exitX=1;exitY=0.5;exitDx=0;exitDy=0;entryX=0;entryY=0.5;entryDx=0;entryDy=0;" edge="1" parent="1" source="IsSZBrrW5yVkn5puTIVh-77" target="IsSZBrrW5yVkn5puTIVh-85">
          <mxGeometry width="50" height="50" relative="1" as="geometry">
            <mxPoint x="480" y="1670" as="sourcePoint" />
            <mxPoint x="530" y="1620" as="targetPoint" />
          </mxGeometry>
        </mxCell>
        <mxCell id="IsSZBrrW5yVkn5puTIVh-87" value="schedule boxes and elevator" style="rounded=1;whiteSpace=wrap;html=1;fontFamily=Helvetica;fontSize=24;" vertex="1" parent="1">
          <mxGeometry x="440" y="1590" width="330" height="60" as="geometry" />
        </mxCell>
        <mxCell id="IsSZBrrW5yVkn5puTIVh-88" value="" style="endArrow=none;dashed=1;html=1;rounded=0;fontFamily=Helvetica;fontSize=24;exitX=1;exitY=0.5;exitDx=0;exitDy=0;entryX=0;entryY=0.5;entryDx=0;entryDy=0;" edge="1" parent="1" source="IsSZBrrW5yVkn5puTIVh-81" target="IsSZBrrW5yVkn5puTIVh-87">
          <mxGeometry width="50" height="50" relative="1" as="geometry">
            <mxPoint x="480" y="1670" as="sourcePoint" />
            <mxPoint x="530" y="1620" as="targetPoint" />
          </mxGeometry>
        </mxCell>
        <mxCell id="IsSZBrrW5yVkn5puTIVh-89" value="&lt;span style=&quot;caret-color: rgb(51, 51, 51); color: rgb(51, 51, 51); font-family: Arial, Helvetica, sans-serif; font-size: 14px; text-align: left; background-color: rgb(255, 255, 255);&quot;&gt;clerk&lt;/span&gt;" style="shape=umlActor;verticalLabelPosition=bottom;verticalAlign=top;html=1;outlineConnect=0;fontFamily=Helvetica;fontSize=24;" vertex="1" parent="1">
          <mxGeometry x="970" y="1390" width="30" height="60" as="geometry" />
        </mxCell>
        <mxCell id="IsSZBrrW5yVkn5puTIVh-91" value="" style="endArrow=none;dashed=1;html=1;rounded=0;fontFamily=Helvetica;fontSize=24;exitX=1;exitY=0.5;exitDx=0;exitDy=0;" edge="1" parent="1" source="IsSZBrrW5yVkn5puTIVh-82" target="IsSZBrrW5yVkn5puTIVh-89">
          <mxGeometry width="50" height="50" relative="1" as="geometry">
            <mxPoint x="760" y="1730" as="sourcePoint" />
            <mxPoint x="810" y="1680" as="targetPoint" />
          </mxGeometry>
        </mxCell>
        <mxCell id="IsSZBrrW5yVkn5puTIVh-92" value="server to receive messages of item" style="whiteSpace=wrap;html=1;aspect=fixed;fontFamily=Helvetica;fontSize=24;fillColor=#ffff88;strokeColor=#36393d;" vertex="1" parent="1">
          <mxGeometry x="940" y="1550" width="120" height="120" as="geometry" />
        </mxCell>
        <mxCell id="IsSZBrrW5yVkn5puTIVh-93" value="" style="endArrow=none;dashed=1;html=1;rounded=0;fontFamily=Helvetica;fontSize=24;exitX=1;exitY=0.75;exitDx=0;exitDy=0;entryX=0;entryY=0.5;entryDx=0;entryDy=0;" edge="1" parent="1" source="IsSZBrrW5yVkn5puTIVh-82" target="IsSZBrrW5yVkn5puTIVh-92">
          <mxGeometry width="50" height="50" relative="1" as="geometry">
            <mxPoint x="760" y="1730" as="sourcePoint" />
            <mxPoint x="810" y="1680" as="targetPoint" />
          </mxGeometry>
        </mxCell>
        <mxCell id="IsSZBrrW5yVkn5puTIVh-94" value="db" style="whiteSpace=wrap;html=1;aspect=fixed;fontFamily=Helvetica;fontSize=24;fillColor=#ffff88;strokeColor=#36393d;" vertex="1" parent="1">
          <mxGeometry x="940" y="1680" width="120" height="120" as="geometry" />
        </mxCell>
        <mxCell id="IsSZBrrW5yVkn5puTIVh-95" value="" style="endArrow=none;dashed=1;html=1;rounded=0;fontFamily=Helvetica;fontSize=24;exitX=1.005;exitY=0.888;exitDx=0;exitDy=0;exitPerimeter=0;entryX=0.017;entryY=0.45;entryDx=0;entryDy=0;entryPerimeter=0;" edge="1" parent="1" source="IsSZBrrW5yVkn5puTIVh-82" target="IsSZBrrW5yVkn5puTIVh-94">
          <mxGeometry width="50" height="50" relative="1" as="geometry">
            <mxPoint x="760" y="1730" as="sourcePoint" />
            <mxPoint x="810" y="1680" as="targetPoint" />
          </mxGeometry>
        </mxCell>
      </root>
    </mxGraphModel>
  </diagram>
</mxfile>
